<?xml version="1.0" encoding="UTF-8" standalone="no"?>
<svg id="Capa_1" xmlns="http://www.w3.org/2000/svg" height="512" width="512" enable-background="new 0 0 512 512" viewBox="0 0 512 512">
 <circle cy="256" cx="256" r="256" fill="#ffe400"/>
 <path d="m512 256c0 87.11-43.52 164.07-110 210.31-41.41 28.8-91.73 45.69-146 45.69s-104.59-16.89-146-45.69c-66.48-46.24-110-123.2-110-210.31 0-46.22 12.25-89.57 33.68-127 44.12 77.07 127.16 129 222.32 129s178.21-51.93 222.32-129c21.43 37.43 33.68 80.78 33.68 127z" fill="#ffce00"/>
 <path d="m129.54 433.5h-18.156c-4.737 0-8.577-3.84-8.577-8.577v-47.165h35.309v47.165c0.001 4.737-3.839 8.577-8.576 8.577z" fill="#374c81"/>
 <path d="m400.62 433.5h-18.156c-4.737 0-8.577-3.84-8.577-8.577v-47.165h35.309v47.165c0.001 4.737-3.839 8.577-8.576 8.577z" fill="#16325b"/>
 <path d="m400.81 171.93v230.68h-289.62v-230.68c0-22.93 18.58-41.52 41.51-41.52h206.6c22.93 0 41.51 18.59 41.51 41.52z" fill="#a63917"/>
 <path d="m400.81 171.93v230.68h-217.21v-230.68c0-22.93 18.58-41.52 41.51-41.52h134.19c22.93 0 41.51 18.59 41.51 41.52z" fill="#83250d"/>
 <path d="m400.81 171.93v230.68h-144.81v-272.2h103.3c22.93 0 41.51 18.59 41.51 41.52z" fill="#531d10"/>
 <path d="m111.19 295.2h289.62v107.41h-289.62z" fill="#c55733"/>
 <path d="m183.6 295.2h217.21v107.41h-217.21z" fill="#a63917"/>
 <path d="m256 295.2h144.81v107.41h-144.81z" fill="#83250d"/>
 <circle cy="237.12" cx="80.047" r="58.071" fill="#c55733"/>
 <path d="m138.12 237.12v165.48h-44.363c-14.501 0-26.256-11.755-26.256-26.256v-139.23z" fill="#c55733"/>
 <circle cy="237.12" cx="431.95" r="58.071" fill="#83250d"/>
 <path d="m373.88 237.12v165.48h44.363c14.501 0 26.256-11.755 26.256-26.256v-139.23z" fill="#83250d"/>
 <path d="m440.46 433.5c-46.57 48.39-112 78.5-184.46 78.5s-137.89-30.11-184.46-78.5z" fill="#545d7a"/>
 <path d="m440.46 433.5c-46.57 48.39-112 78.5-184.46 78.5v-78.5z" fill="#474f6f"/>
 <circle cy="237.12" cx="80.047" r="21.038" fill="#a63917"/>
 <circle cy="237.12" cx="431.95" r="21.038" fill="#531d10"/>
</svg>
