<?xml version="1.0" encoding="UTF-8" standalone="no"?>
<!-- Generator: Adobe Illustrator 19.0.0, SVG Export Plug-In . SVG Version: 6.00 Build 0)  -->
<svg id="Capa_1" style="enable-background:new 0 0 512 512" xmlns="http://www.w3.org/2000/svg" xml:space="preserve" viewBox="0 0 512 512" version="1.1" y="0px" x="0px" xmlns:xlink="http://www.w3.org/1999/xlink">
<circle cx="256" r="247.47" cy="256" fill="#91CECE"/>
<circle cx="256" r="213.33" cy="256" fill="#FFD33F"/>
<path d="m398.05 96.879c78.259 88.073 70.306 222.92-17.766 301.18-80.819 71.817-202.59 71.817-283.41 0 78.259 88.073 213.1 96.026 301.18 17.766s96.026-213.1 17.766-301.18c-5.57-6.27-11.5-12.21-17.77-17.771z" fill="#FFAC3E"/>
<path d="m221.87 349.87h68.267c18.85 0 34.133 15.283 34.133 34.133s-15.283 34.133-34.133 34.133h-68.267c-18.85 0-34.133-15.283-34.133-34.133-0.01-18.85 15.28-34.13 34.13-34.13z" fill="#EA3836"/>
<path d="m230.4 358.4h68.267c6.963 0 13.756 2.142 19.465 6.135-6.366-9.182-16.828-14.669-27.998-14.669h-68.267c-18.85 0.043-34.099 15.351-34.065 34.202 0.026 11.128 5.47 21.547 14.601 27.921-10.778-15.437-6.997-36.685 8.439-47.454 5.74-4.01 12.56-6.15 19.56-6.14z" fill="#D62121"/>
<path d="m238.93 375.47h-17.067c-4.71 0-8.533 3.823-8.533 8.533s3.823 8.533 8.533 8.533h17.067c4.71 0 8.533-3.823 8.533-8.533s-3.82-8.53-8.53-8.53z"/>
<path d="m290.13 375.47h-17.067c-4.71 0-8.533 3.823-8.533 8.533s3.823 8.533 8.533 8.533h17.067c4.71 0 8.533-3.823 8.533-8.533s-3.82-8.53-8.53-8.53z"/>
<path d="m396.5 292.26c19.985-77.585-26.709-156.68-104.29-176.67s-156.68 26.709-176.67 104.29c-9.472 36.762-4.156 75.759 14.805 108.65 2.483 4.011 7.74 5.248 11.75 2.765 3.84-2.372 5.163-7.33 3.021-11.298-35.302-61.244-14.276-139.51 46.967-174.82s139.51-14.276 174.82 46.967c16.725 29.013 21.41 63.428 13.056 95.863-1.178 4.565 1.57 9.225 6.135 10.402 4.565 1.178 9.225-1.57 10.402-6.135v-0.02z"/>
<g fill="#EA3836">
	<rect height="17.067" width="34.133" y="247.47" x="59.733"/>
	<rect height="17.067" width="34.133" y="247.47" x="418.13"/>
		<rect transform="matrix(-.8661 .4999 -.4999 -.8661 360.87 594.56)" height="17.067" width="34.134" y="337.08" x="83.73"/>
		<rect transform="matrix(-.8661 .4999 -.4999 -.8661 850.56 104.94)" height="17.067" width="34.134" y="157.86" x="394.16"/>
		<rect transform="matrix(-.4999 .8661 -.8661 -.4999 295.31 162.27)" height="34.134" width="17.067" y="149.33" x="92.273"/>
		<rect transform="matrix(-.4999 .8661 -.8661 -.4999 916.05 162.17)" height="34.134" width="17.067" y="328.5" x="402.67"/>
		<rect transform="matrix(-.8661 .4999 -.4999 -.8661 360.92 104.95)" height="34.134" width="17.067" y="83.748" x="157.87"/>
	<rect height="34.133" width="17.067" y="59.733" x="247.47"/>
		<rect transform="matrix(-.4999 .8661 -.8661 -.4999 605.62 -148.13)" height="17.067" width="34.134" y="92.256" x="328.51"/>
		<rect transform="matrix(-.2588 .9659 -.9659 -.2588 300.58 186.39)" height="25.599" width="17.066" y="195.72" x="70.249"/>
		<rect transform="matrix(-.2588 .9659 -.9659 -.2588 838.54 -36.39)" height="25.599" width="17.066" y="290.73" x="424.7"/>
		<rect transform="matrix(-.7071 .7071 -.7071 -.7071 304.84 126.25)" height="25.6" width="17.067" y="113.46" x="117.74"/>
		<rect transform="matrix(-.9659 .2588 -.2588 -.9659 430.3 100.94)" height="25.599" width="17.066" y="65.992" x="199.97"/>
		<rect transform="matrix(-.2588 .9659 -.9659 -.2588 458.18 -193.85)" height="17.066" width="25.599" y="70.333" x="290.66"/>
		<rect transform="matrix(-.7071 .7071 -.7071 -.7071 747.79 -57.159)" height="17.067" width="25.6" y="117.76" x="372.93"/>
		<rect transform="matrix(-.9659 .2588 -.2588 -.9659 905.65 297.79)" height="17.066" width="25.599" y="199.98" x="420.42"/>
		<rect transform="matrix(-.9659 .2588 -.2588 -.9659 233.43 576.24)" height="17.066" width="25.599" y="294.95" x="65.983"/>
	<path d="m279.38 245.65c5.751 12.877-0.034 27.981-12.911 33.732-3.294 1.468-6.861 2.227-10.47 2.219l119.47 42.667-96.09-78.62z"/>
</g>
<polygon points="256 281.6 375.47 324.27 264.53 273.73" fill="#D62121"/>
<circle cx="256" r="25.6" cy="256" fill="#383856"/>
<path d="m269.26 234.21c2.475 3.985 3.789 8.576 3.806 13.261 0 14.14-11.46 25.6-25.6 25.6-4.685-0.017-9.276-1.331-13.261-3.806 7.287 12.066 22.989 15.94 35.055 8.653s15.94-22.989 8.653-35.055c-2.14-3.54-5.11-6.51-8.65-8.65z" fill="#202033"/>
<g fill="#D62121">
	<path d="m450.69 264.53h1.579v-17.067h-0.213c-0.24 5.76-0.71 11.45-1.37 17.07z"/>
	<path d="m421.71 361.52l8.533-14.78-5.436-3.14c-2.807 4.966-5.76 9.839-8.934 14.507l5.84 3.41z"/>
	<path d="m443.37 315.04l4.42-16.486-3.746-0.998c-1.57 5.504-3.319 10.931-5.316 16.213l4.65 1.28z"/>
</g>
<path d="m256 0c-141.39 0-256 114.61-256 256s114.61 256 256 256 256-114.61 256-256c-0.16-141.32-114.68-255.84-256-256zm0 494.93c-131.96 0-238.93-106.97-238.93-238.93s106.97-238.93 238.93-238.93 238.93 106.97 238.93 238.93c-0.15 131.9-107.03 238.78-238.93 238.93z"/>
<path d="m256 34.133c-122.53 0-221.87 99.337-221.87 221.87s99.34 221.87 221.87 221.87 221.87-99.34 221.87-221.87c-0.14-122.48-99.39-221.73-221.87-221.87zm0 426.67c-113.11 0-204.8-91.691-204.8-204.8s91.69-204.8 204.8-204.8 204.8 91.69 204.8 204.8c-0.13 113.05-91.75 204.67-204.8 204.8z"/>
<path d="m287 240.86c-0.256-0.154-0.521-0.299-0.794-0.427-8.567-16.734-29.073-23.356-45.807-14.788-16.734 8.567-23.356 29.073-14.788 45.807 5.504 10.752 16.29 17.783 28.348 18.475l118.61 42.368c0.93 0.341 1.911 0.512 2.901 0.503 4.71 0 8.533-3.823 8.533-8.533 0-2.56-1.152-4.983-3.132-6.605l-93.87-76.8zm-48.07 15.14c0-9.429 7.637-17.067 17.067-17.067 9.429 0 17.067 7.637 17.067 17.067 0 9.429-7.637 17.067-17.067 17.067s-17.07-7.64-17.07-17.07zm40.32 24.85c4.719-4.42 8.073-10.095 9.677-16.358l43.017 35.149-52.7-18.79z"/>
<path d="m290.13 341.33h-68.267c-23.561 0-42.667 19.106-42.667 42.667s19.106 42.667 42.667 42.667h68.267c23.561 0 42.667-19.106 42.667-42.667s-19.11-42.67-42.67-42.67zm0 68.27h-68.267c-14.14 0-25.6-11.46-25.6-25.6s11.46-25.6 25.6-25.6h68.267c14.14 0 25.6 11.46 25.6 25.6s-11.46 25.6-25.6 25.6z"/>
</svg>
