<?xml version="1.0" encoding="UTF-8" standalone="no"?>
<!-- Generator: Adobe Illustrator 19.0.0, SVG Export Plug-In . SVG Version: 6.00 Build 0)  -->
<svg id="Capa_1" style="enable-background:new 0 0 512 512" xmlns="http://www.w3.org/2000/svg" xml:space="preserve" viewBox="0 0 512 512" version="1.1" y="0px" x="0px" xmlns:xlink="http://www.w3.org/1999/xlink">
<polygon points="366.01 60.582 161.06 60.582 161.06 268.73 251.74 268.73 341 357.99 341 268.73 441.01 268.73 441.01 60.582" fill="#EA0016"/>
<path d="m431.36 415.78h-28.357c-44.464 0-80.638 36.174-80.638 80.638v15h189.64v-15c0-44.46-36.17-80.64-80.64-80.64z" fill="#52B6FC"/>
<path d="m431.36 415.78h-14.36v95.638h95v-15c0-44.46-36.17-80.64-80.64-80.64z" fill="#3B97D6"/>
<polygon points="227.67 58.633 227.67 268.73 251.74 268.73 341 357.99 341 268.73 441.01 268.73 441.01 60.582" fill="#C30010"/>
<polygon points="78.004 0.579 78.004 208.72 138.01 208.72 138.01 297.99 227.28 208.72 381.01 208.72 381.01 0.579" fill="#FDA42D"/>
<rect height="208.14" width="153.34" y=".579" x="227.67" fill="#EE7F2A"/>
<g fill="#FEDC36">
	<rect height="30" width="183" y="58.63" x="138"/>
	<rect height="30" width="183" y="118.64" x="138"/>
</g>
<g fill="#FDC500">
	<rect height="30" width="93.33" y="58.63" x="227.67"/>
	<rect height="30" width="93.33" y="118.64" x="227.67"/>
</g>
<path d="m109 415.78h-28.362c-44.464 0-80.638 36.18-80.638 80.64v15h189.63v-15c0-44.46-36.17-80.64-80.63-80.64z" fill="#265185"/>
<path d="m109 415.78h-14.052v95.638h94.684v-15c0-44.46-36.17-80.64-80.63-80.64z" fill="#183866"/>
<path d="m94.716 330.51c-31.78 0-57.635 25.855-57.635 57.635s25.855 57.635 57.635 57.635 57.635-25.855 57.635-57.635-25.85-57.63-57.634-57.63z" fill="#FFDFCF"/>
<path d="m94.948 330.52v115.26c31.673-0.126 57.402-25.927 57.402-57.629s-25.73-57.5-57.402-57.63z" fill="#FFCEBF"/>
<path d="m417.08 330.51c-31.78 0-57.635 25.855-57.635 57.635s25.855 57.635 57.635 57.635 57.635-25.855 57.635-57.635-25.86-57.63-57.64-57.63z" fill="#FFDFCF"/>
<path d="m417.08 330.51c-0.028 0-0.056 0.002-0.084 0.002v115.26c0.028 0 0.056 0.002 0.084 0.002 31.78 0 57.635-25.855 57.635-57.635s-25.86-57.63-57.64-57.63z" fill="#FFCEBF"/>
</svg>
