<?xml version="1.0" encoding="UTF-8" standalone="no"?>
<!-- Generator: Adobe Illustrator 19.0.0, SVG Export Plug-In . SVG Version: 6.00 Build 0)  -->
<svg id="Layer_1" style="enable-background:new 0 0 512.002 512.002" xmlns="http://www.w3.org/2000/svg" xml:space="preserve" viewBox="0 0 512.002 512.002" version="1.1" y="0px" x="0px" xmlns:xlink="http://www.w3.org/1999/xlink">
<path d="m173.29 188.93l-25.576 25.58c1.193 2.188 2.378 4.554 3.719 6.939 12.176 21.957 28.766 52.003 60.386 83.623 31.699 31.688 61.757 48.392 83.716 60.56 2.307 1.311 3.818 1.848 5.976 3.04l22.55-23.994 2.486-2.486c19.01-19.01 49.831-19.01 68.843 0l50.794 50.794c19.117 19.117 18.995 50.149-0.273 69.113l-10.151 9.991c-8.322 6.507-18.001 12.027-28.325 16.069-9.86 3.737-19.3 6.127-28.696 7.162-75.484 9.129-144.48-25.357-238.11-118.94-129.37-129.39-119.64-233.68-119.13-238.18 1.154-9.78 3.495-19.172 7.192-28.726 4.003-10.244 9.606-20.008 16.114-28.29l9.985-10.154c18.959-19.285 50.009-19.416 69.129-0.291l49.369 49.369c19.01 19.01 19.01 49.83 0 68.84z" fill="#FFEEC0"/>
<g fill="#FFC61B">
	<path d="m355.62 512c-70.726 0-138.25-37.332-225.78-124.83-55.626-55.64-93.312-113.54-112.01-172.08-14.597-45.69-11.861-75.36-11.499-78.59 1.32-11.203 3.975-21.816 8.126-32.543 4.513-11.546 10.85-22.668 18.346-32.21 0.349-0.444 0.723-0.867 1.117-1.27l9.985-10.154c12.117-12.324 28.31-19.111 45.594-19.111 17.078 0 33.135 6.651 45.211 18.726l49.371 49.371c24.928 24.931 24.928 65.493 0.002 90.423l-17.527 17.527c11.555 20.792 27.447 48.424 56.055 77.032 28.156 28.149 55.128 43.978 75.747 55.466l14.584-15.52c0.108-0.114 0.218-0.227 0.33-0.34l2.486-2.486c12.077-12.076 28.136-18.726 45.214-18.726s33.135 6.65 45.212 18.726l50.793 50.794c12.144 12.143 18.795 28.29 18.726 45.464-0.067 17.174-6.844 33.268-19.086 45.316l-10.15 9.991c-0.414 0.406-0.848 0.789-1.303 1.145-9.494 7.424-20.614 13.739-32.161 18.259-0.052 0.021-0.104 0.04-0.157 0.061-11.207 4.245-21.792 6.881-32.355 8.051-8.341 1.004-16.699 1.515-24.849 1.515h-0.01zm-299.32-420.76c-5.457 7.078-10.081 15.28-13.4 23.774-3.196 8.256-5.247 16.435-6.251 24.957-0.018 0.156-2.639 25.49 10.247 65.83 11.83 37.031 39.566 94.812 104.52 159.79 81.257 81.225 142.34 115.88 204.2 115.89h0.012c6.959 0 14.114-0.439 21.273-1.305 0.052-0.006 0.105-0.012 0.159-0.018 7.977-0.879 16.117-2.919 24.884-6.235 8.531-3.348 16.722-7.951 23.748-13.338l9.506-9.358c6.397-6.296 9.941-14.708 9.974-23.686 0.035-8.976-3.44-17.414-9.788-23.761l-50.793-50.794c-6.312-6.313-14.703-9.788-23.629-9.788s-17.321 3.476-23.632 9.788l-2.317 2.317-22.389 23.825c-4.78 5.085-12.399 6.28-18.503 2.904-0.711-0.394-1.326-0.679-1.943-0.974-1.091-0.522-2.448-1.167-4.113-2.112-22.692-12.572-53.75-29.794-87.042-63.079-32.975-32.975-50.189-64.014-62.756-86.679l-0.186-0.336c-0.818-1.454-1.622-2.976-2.4-4.458-0.464-0.879-0.917-1.743-1.37-2.576-3.241-5.942-2.181-13.31 2.606-18.096l25.578-25.58c13.028-13.028 13.028-34.229-0.002-47.26l-49.374-49.366c-6.312-6.312-14.703-9.788-23.628-9.788-9.034 0-17.498 3.547-23.829 9.988l-9.369 9.546z"/>
	<path d="m487.96 244.62c-0.902 0-1.814-0.081-2.733-0.246-8.294-1.5-13.802-9.44-12.303-17.733 9.719-53.75-7.496-108.86-46.05-147.41s-93.659-55.777-147.41-46.05c-8.288 1.497-16.233-4.007-17.733-12.303-1.499-8.294 4.009-16.233 12.303-17.733 63.595-11.496 128.8 8.877 174.42 54.503 45.624 45.626 66 110.83 54.503 174.42-1.34 7.38-7.76 12.55-15 12.55z"/>
	<path d="m394.87 244.63c-1.796 0-3.62-0.319-5.399-0.992-7.882-2.983-11.854-11.793-8.871-19.675 10.62-28.058 3.792-59.876-17.392-81.062s-53.003-28.011-81.062-17.392c-7.882 2.99-16.692-0.987-19.675-8.871-2.983-7.882 0.987-16.692 8.871-19.675 39.262-14.862 83.792-5.3 113.45 24.356 29.656 29.659 39.215 74.189 24.356 113.45-2.32 6.1-8.12 9.86-14.29 9.86z"/>
</g>
</svg>
