<?xml version="1.0" encoding="UTF-8" standalone="no"?>
<!-- Generator: Adobe Illustrator 19.0.0, SVG Export Plug-In . SVG Version: 6.00 Build 0)  -->
<svg id="Layer_1" style="enable-background:new 0 0 512 512" xmlns="http://www.w3.org/2000/svg" xml:space="preserve" viewBox="0 0 512 512" version="1.1" y="0px" x="0px" xmlns:xlink="http://www.w3.org/1999/xlink">
<path d="m500.45 464.74l-151.27 22.756-151.27-22.756v-417.47l151.27-22.756 151.27 22.749v417.48z" fill="#463836"/>
<g fill="#6FC5D6">
	<path d="m500.45 47.263h-302.55v-0.717c0-25.6 20.95-46.546 46.55-46.546h209.45c25.6 0 46.547 20.946 46.547 46.546v0.717z"/>
	<path d="m500.45 465.45c0 25.6-20.947 46.546-46.547 46.546h-209.45c-25.6 0-46.546-20.946-46.546-46.546v-0.717h302.55v0.72z"/>
</g>
<path d="m381.15 211.71c-2.862 0-5.656-1.439-7.269-4.053-2.476-4.011-1.231-9.268 2.778-11.743 15.613-9.637 24.933-26.327 24.933-44.645 0-28.903-23.516-52.419-52.42-52.419-18.416 0-35.702 9.851-45.115 25.71-2.405 4.054-7.639 5.389-11.693 2.982-4.053-2.405-5.387-7.64-2.982-11.693 12.471-21.012 35.383-34.065 59.791-34.065 38.316 0 69.486 31.171 69.486 69.485 0 24.281-12.349 46.4-33.035 59.168-1.41 0.85-2.96 1.26-4.49 1.26z" fill="#FFD24D"/>
<g fill="#F99D88">
	<path d="m367.06 381.48l-33.799-1.617-1.617-33.799c9.783-9.783 25.632-9.783 35.416 0s9.79 25.63 0 35.42z"/>
	<path d="m331.65 346.06l-33.799-1.617-1.617-33.799c9.783-9.783 25.632-9.783 35.416 0 9.78 9.79 9.78 25.64 0 35.42z"/>
	<path d="m296.23 310.65l-33.799-1.617-1.617-33.799c9.783-9.783 25.632-9.783 35.416 0 9.79 9.78 9.79 25.63 0 35.42z"/>
</g>
<path d="m260.82 275.23l104.69-104.69c9.783-9.783 9.783-25.632 0-35.416s-25.632-9.783-35.416 0l-169.35 169.35c-23.782 23.782-33.533 56.156-28.697 87.026l-120.49 120.5h166.66l37.173-37.173c30.869 4.836 63.245-4.915 87.026-28.697l64.652-64.652-106.24-106.25z" fill="#FAD4C6"/>
</svg>
