<?xml version="1.0" encoding="UTF-8" standalone="no"?>
<!-- Generator: Adobe Illustrator 19.0.0, SVG Export Plug-In . SVG Version: 6.00 Build 0)  -->
<svg id="Layer_1" style="enable-background:new 0 0 512.001 512.001" xmlns="http://www.w3.org/2000/svg" xml:space="preserve" viewBox="0 0 512.001 512.001" version="1.1" y="0px" x="0px" xmlns:xlink="http://www.w3.org/1999/xlink">
<path d="m372.78 238.2c-2.659-16.209-11.221-35.529-36.907-35.529-3.663 0-6.792 2.642-7.405 6.253l-4.93 29.01c-1.948 11.461-4.621 22.378-7.942 32.448-9.197 27.887-20.802 42.181-41.39 50.987-9.892 4.23-17.924 7.849-21.136 9.307h-38.5c-4.15 0-7.512 3.362-7.512 7.512v136.07c0 4.15 3.363 7.512 7.512 7.512h37.472l16.143 13.069c13.552 10.972 30.618 17.014 48.056 17.014h45.767c4.15 0 7.512-3.363 7.512-7.512 0-2.807-1.541-5.249-3.82-6.538v-150.01h-9.344l15.726-79.247c2.06-10.39 2.3-20.6 0.7-30.34z" fill="#F7B081"/>
<path d="m214.57 317.15h-58.366c-4.15 0-7.512 3.363-7.512 7.512v160.62c0 4.15 3.363 7.512 7.512 7.512h58.366c4.15 0 7.512-3.362 7.512-7.512v-160.61c0-4.15-3.36-7.52-7.51-7.52z" fill="#EFE7E4"/>
<path d="m148.69 462.86v22.422c0 4.15 3.363 7.512 7.512 7.512h58.366c4.15 0 7.512-3.362 7.512-7.512v-22.422h-73.39z" fill="#D8D1D0"/>
<path d="m345.47 490.36c0-11.953 9.689-21.641 21.642-21.641-11.953 0-21.642-9.689-21.642-21.643 0-11.953 9.689-21.642 21.642-21.642-11.953 0-21.642-9.69-21.642-21.642 0-11.953 9.689-21.642 21.642-21.642-11.953 0-21.642-9.69-21.642-21.641 0-11.953 9.689-21.643 21.642-21.643h-24.553c-11.953 0-21.642 9.689-21.642 21.643 0 11.953 9.689 21.641 21.642 21.641-11.953 0-21.642 9.69-21.642 21.642 0 11.953 9.689 21.642 21.642 21.642-11.953 0-21.642 9.689-21.642 21.642s9.689 21.643 21.642 21.643c-11.953 0-21.642 9.689-21.642 21.641 0 11.953 9.689 21.643 21.642 21.643h24.553c-11.95 0-21.64-9.69-21.64-21.64z" fill="#DD9A76"/>
<path d="m173.12 108.4c-1.666-5.123-6.012-8.786-11.343-9.561l-34.159-4.964-15.276-30.953c-2.385-4.831-7.213-7.832-12.601-7.832-5.387 0-10.215 3.001-12.6 7.832l-15.268 30.953-34.158 4.964c-5.332 0.774-9.678 4.437-11.344 9.561-1.666 5.123-0.303 10.643 3.555 14.407l24.718 24.093-5.834 34.02c-0.911 5.311 1.231 10.576 5.588 13.744 2.464 1.79 5.345 2.698 8.247 2.698 2.233 0 4.477-0.539 6.552-1.629l30.552-16.062 30.552 16.062c4.769 2.507 10.438 2.097 14.796-1.069 4.359-3.166 6.501-8.433 5.59-13.744l-5.835-34.02 24.718-24.095c3.85-3.76 5.21-9.28 3.54-14.4z" fill="#F7CB4F"/>
<path d="m161.78 98.839l-0.759-0.11-38.62 38.121c-1.984 1.934-2.889 4.72-2.421 7.45l9.1 50.787 1.221 0.642c4.769 2.507 10.438 2.097 14.796-1.069 4.359-3.166 6.501-8.433 5.59-13.744l-5.835-34.02 24.718-24.095c3.859-3.761 5.221-9.281 3.556-14.406-1.68-5.11-6.03-8.778-11.36-9.551z" fill="#FBAB00"/>
<path d="m331.15 53.31c-1.666-5.123-6.012-8.786-11.343-9.561l-34.159-4.964-15.27-30.953c-2.39-4.831-7.22-7.832-12.6-7.832-5.388 0-10.215 3.001-12.6 7.832l-15.276 30.953-34.158 4.964c-5.332 0.773-9.678 4.437-11.344 9.561s-0.303 10.643 3.555 14.407l24.719 24.094-5.835 34.019c-0.911 5.311 1.231 10.576 5.588 13.744 4.359 3.167 10.027 3.576 14.798 1.07l30.552-16.062 30.552 16.062c2.074 1.091 4.318 1.629 6.552 1.629 2.902 0 5.783-0.91 8.247-2.698 4.358-3.167 6.5-8.433 5.588-13.743l-5.835-34.02 24.72-24.095c3.86-3.761 5.22-9.281 3.55-14.405z" fill="#F7CB4F"/>
<path d="m303.12 139.57c4.358-3.167 6.5-8.433 5.588-13.743l-5.835-34.02 24.72-24.095c3.857-3.762 5.22-9.282 3.554-14.406-1.666-5.123-6.012-8.786-11.343-9.561l-0.313-0.045-39.07 38.057c-1.983 1.933-2.889 4.72-2.421 7.45l7.073 41.235 1.694 9.378 1.554 0.816c2.074 1.091 4.318 1.629 6.552 1.629 2.91 0 5.79-0.91 8.25-2.7z" fill="#FBAB00"/>
<path d="m488.89 108.4c-1.666-5.123-6.012-8.786-11.343-9.561l-34.159-4.964-15.276-30.953c-2.385-4.831-7.212-7.832-12.6-7.832s-10.215 3.001-12.6 7.832l-15.276 30.953-34.158 4.964c-5.332 0.774-9.678 4.437-11.344 9.561-1.665 5.124-0.304 10.644 3.556 14.406l24.718 24.095-5.835 34.019c-0.911 5.311 1.231 10.576 5.588 13.744 4.359 3.167 10.026 3.577 14.798 1.07l30.552-16.062 30.552 16.062c2.074 1.091 4.318 1.629 6.552 1.629 2.902 0 5.783-0.91 8.247-2.698 4.358-3.167 6.5-8.433 5.588-13.743l-5.835-34.02 24.72-24.095c3.85-3.76 5.21-9.28 3.55-14.4z" fill="#F7CB4F"/>
<path d="m488.89 108.4c-1.666-5.123-6.012-8.786-11.343-9.561l-0.606-0.088-38.777 38.101c-1.983 1.934-2.889 4.72-2.421 7.45l8.209 50.32 2.111 1.11c2.074 1.091 4.318 1.629 6.552 1.629 2.902 0 5.783-0.91 8.247-2.698 4.358-3.167 6.5-8.433 5.588-13.743l-5.835-34.02 24.72-24.095c3.85-3.76 5.21-9.28 3.55-14.4z" fill="#FBAB00"/>
<path d="m156.2 301.54h-126.27c-4.15 0-7.512 3.363-7.512 7.512v191.85c0 4.15 3.363 7.512 7.512 7.512h126.28c4.15 0 7.512-3.363 7.512-7.512v-191.85c0-4.15-3.36-7.51-7.52-7.51z" fill="#546F7A"/>
<path d="m22.414 479.6v21.301c0 4.15 3.363 7.512 7.512 7.512h126.28c4.15 0 7.512-3.363 7.512-7.512v-21.301h-141.31z" fill="#465A65"/>
<circle cx="116.32" r="11.961" cy="462.29" fill="#353535"/>
<path d="m441.26 338.86h-78.257c-13.879 0-25.17 11.291-25.17 25.17v4.212c0 13.88 11.291 25.17 25.17 25.17h78.257c13.879 0 25.17-11.291 25.17-25.17v-4.212c-0.01-13.87-11.29-25.17-25.17-25.17z" fill="#FFC89F"/>
<path d="m441.26 369.14h-78.257c-10.315 0-19.195-6.239-23.08-15.14-1.341 3.075-2.09 6.467-2.09 10.03v4.212c0 13.88 11.291 25.17 25.17 25.17h78.257c13.879 0 25.17-11.291 25.17-25.17v-4.212c0-3.564-0.749-6.955-2.09-10.03-3.89 8.9-12.77 15.14-23.08 15.14z" fill="#F7B081"/>
<path d="m450.39 378.39h-87.392c-13.879 0-25.17 11.292-25.17 25.17v4.212c0 13.88 11.291 25.17 25.17 25.17h87.392c13.88 0 25.17-11.291 25.17-25.17v-4.212c0-13.88-11.29-25.17-25.17-25.17z" fill="#FFC89F"/>
<path d="m450.39 408.9h-87.392c-10.36 0-19.275-6.292-23.131-15.254-1.31 3.045-2.039 6.396-2.039 9.916v4.212c0 13.88 11.291 25.17 25.17 25.17h87.392c13.88 0 25.17-11.291 25.17-25.17v-4.213c0-3.52-0.729-6.871-2.039-9.916-3.85 8.96-12.77 15.25-23.13 15.25z" fill="#F7B081"/>
<path d="m439.15 417.92h-74.045c-15.041 0-27.276 12.236-27.276 27.276 0 15.041 12.236 27.276 27.276 27.276h74.045c15.041 0 27.276-12.236 27.276-27.276s-12.23-27.28-27.27-27.28z" fill="#FFC89F"/>
<path d="m439.15 447.95h-74.045c-10.632 0-19.856-6.118-24.354-15.016-1.865 3.689-2.923 7.853-2.923 12.261 0 15.041 12.236 27.276 27.276 27.276h74.045c15.041 0 27.276-12.236 27.276-27.276 0-4.408-1.058-8.572-2.923-12.261-4.52 8.9-13.74 15.02-24.37 15.02z" fill="#F7B081"/>
<path d="m418.77 457.45h-53.663c-15.041 0-27.276 12.236-27.276 27.277s12.236 27.276 27.276 27.276h53.663c15.041 0 27.277-12.236 27.277-27.276-0.01-15.05-12.24-27.28-27.28-27.28z" fill="#FFC89F"/>
<path d="m418.77 487.5h-53.663c-10.635 0-19.863-6.122-24.358-15.025-1.862 3.687-2.918 7.847-2.918 12.252 0 15.041 12.236 27.276 27.276 27.276h53.663c15.041 0 27.277-12.236 27.277-27.276 0-4.405-1.056-8.565-2.918-12.252-4.5 8.9-13.73 15.02-24.36 15.02z" fill="#F7B081"/>
</svg>
